M48
METRIC,TZ
T01C1.7780
T02C1.0160
T03C0.7620
T04C0.8500
%
T01
X-33100Y+20400
X-33000Y-4600
X+39000Y+20300
X+39000Y-4600
T02
X+3400Y+18240
X+3400Y+15700
X+3400Y+13160
X-33200Y+9700
X-33200Y+4700
X+38900Y+5500
X+38900Y+600
X-21400Y+9100
X-21400Y+6560
X-2640Y+7600
X-12800Y+7600
X-2540Y+16300
X-12700Y+16300
X-11400Y+21000
X-6400Y+21000
X-23500Y-4600
X-18500Y-4600
X+28900Y-4800
X+33900Y-4800
T03
X-25600Y+3200
X-15440Y+3200
X-17200Y+13500
X-17200Y+18580
X-12700Y+12900
X-2540Y+12900
X-13540Y-4800
X-8460Y-4800
X-11000Y-4800
X+460Y-4900
X+5540Y-4900
X+3000Y-4900
X+25600Y-780
X+25600Y+4300
T04
X-25900Y+13600
X-25900Y+18600
X+17200Y-700
X+17200Y+4300
M30
