G04 PROTEUS RS274X GERBER FILE*
%FSLAX45Y45*%
%MOMM*%
G01*
%ADD20C,0.101600*%
%ADD21C,0.127000*%
%ADD22C,0.063500*%
D20*
X-3246500Y+2040000D02*
X-3246717Y+2045247D01*
X-3248482Y+2055742D01*
X-3252174Y+2066237D01*
X-3258202Y+2076732D01*
X-3267424Y+2087112D01*
X-3277919Y+2094800D01*
X-3288414Y+2099718D01*
X-3298909Y+2102524D01*
X-3309404Y+2103497D01*
X-3310000Y+2103500D01*
X-3373500Y+2040000D02*
X-3373283Y+2045247D01*
X-3371518Y+2055742D01*
X-3367826Y+2066237D01*
X-3361798Y+2076732D01*
X-3352576Y+2087112D01*
X-3342081Y+2094800D01*
X-3331586Y+2099718D01*
X-3321091Y+2102524D01*
X-3310596Y+2103497D01*
X-3310000Y+2103500D01*
X-3373500Y+2040000D02*
X-3373283Y+2034753D01*
X-3371518Y+2024258D01*
X-3367826Y+2013763D01*
X-3361798Y+2003268D01*
X-3352576Y+1992888D01*
X-3342081Y+1985200D01*
X-3331586Y+1980282D01*
X-3321091Y+1977476D01*
X-3310596Y+1976503D01*
X-3310000Y+1976500D01*
X-3246500Y+2040000D02*
X-3246717Y+2034753D01*
X-3248482Y+2024258D01*
X-3252174Y+2013763D01*
X-3258202Y+2003268D01*
X-3267424Y+1992888D01*
X-3277919Y+1985200D01*
X-3288414Y+1980282D01*
X-3298909Y+1977476D01*
X-3309404Y+1976503D01*
X-3310000Y+1976500D01*
X-3310000Y+2103500D02*
X-3310000Y+1976500D01*
X-3373500Y+2040000D02*
X-3246500Y+2040000D01*
X-3236500Y-460000D02*
X-3236717Y-454753D01*
X-3238482Y-444258D01*
X-3242174Y-433763D01*
X-3248202Y-423268D01*
X-3257424Y-412888D01*
X-3267919Y-405200D01*
X-3278414Y-400282D01*
X-3288909Y-397476D01*
X-3299404Y-396503D01*
X-3300000Y-396500D01*
X-3363500Y-460000D02*
X-3363283Y-454753D01*
X-3361518Y-444258D01*
X-3357826Y-433763D01*
X-3351798Y-423268D01*
X-3342576Y-412888D01*
X-3332081Y-405200D01*
X-3321586Y-400282D01*
X-3311091Y-397476D01*
X-3300596Y-396503D01*
X-3300000Y-396500D01*
X-3363500Y-460000D02*
X-3363283Y-465247D01*
X-3361518Y-475742D01*
X-3357826Y-486237D01*
X-3351798Y-496732D01*
X-3342576Y-507112D01*
X-3332081Y-514800D01*
X-3321586Y-519718D01*
X-3311091Y-522524D01*
X-3300596Y-523497D01*
X-3300000Y-523500D01*
X-3236500Y-460000D02*
X-3236717Y-465247D01*
X-3238482Y-475742D01*
X-3242174Y-486237D01*
X-3248202Y-496732D01*
X-3257424Y-507112D01*
X-3267919Y-514800D01*
X-3278414Y-519718D01*
X-3288909Y-522524D01*
X-3299404Y-523497D01*
X-3300000Y-523500D01*
X-3300000Y-396500D02*
X-3300000Y-523500D01*
X-3363500Y-460000D02*
X-3236500Y-460000D01*
X+3963500Y+2030000D02*
X+3963283Y+2035247D01*
X+3961518Y+2045742D01*
X+3957826Y+2056237D01*
X+3951798Y+2066732D01*
X+3942576Y+2077112D01*
X+3932081Y+2084800D01*
X+3921586Y+2089718D01*
X+3911091Y+2092524D01*
X+3900596Y+2093497D01*
X+3900000Y+2093500D01*
X+3836500Y+2030000D02*
X+3836717Y+2035247D01*
X+3838482Y+2045742D01*
X+3842174Y+2056237D01*
X+3848202Y+2066732D01*
X+3857424Y+2077112D01*
X+3867919Y+2084800D01*
X+3878414Y+2089718D01*
X+3888909Y+2092524D01*
X+3899404Y+2093497D01*
X+3900000Y+2093500D01*
X+3836500Y+2030000D02*
X+3836717Y+2024753D01*
X+3838482Y+2014258D01*
X+3842174Y+2003763D01*
X+3848202Y+1993268D01*
X+3857424Y+1982888D01*
X+3867919Y+1975200D01*
X+3878414Y+1970282D01*
X+3888909Y+1967476D01*
X+3899404Y+1966503D01*
X+3900000Y+1966500D01*
X+3963500Y+2030000D02*
X+3963283Y+2024753D01*
X+3961518Y+2014258D01*
X+3957826Y+2003763D01*
X+3951798Y+1993268D01*
X+3942576Y+1982888D01*
X+3932081Y+1975200D01*
X+3921586Y+1970282D01*
X+3911091Y+1967476D01*
X+3900596Y+1966503D01*
X+3900000Y+1966500D01*
X+3900000Y+2093500D02*
X+3900000Y+1966500D01*
X+3836500Y+2030000D02*
X+3963500Y+2030000D01*
X+3963500Y-460000D02*
X+3963283Y-454753D01*
X+3961518Y-444258D01*
X+3957826Y-433763D01*
X+3951798Y-423268D01*
X+3942576Y-412888D01*
X+3932081Y-405200D01*
X+3921586Y-400282D01*
X+3911091Y-397476D01*
X+3900596Y-396503D01*
X+3900000Y-396500D01*
X+3836500Y-460000D02*
X+3836717Y-454753D01*
X+3838482Y-444258D01*
X+3842174Y-433763D01*
X+3848202Y-423268D01*
X+3857424Y-412888D01*
X+3867919Y-405200D01*
X+3878414Y-400282D01*
X+3888909Y-397476D01*
X+3899404Y-396503D01*
X+3900000Y-396500D01*
X+3836500Y-460000D02*
X+3836717Y-465247D01*
X+3838482Y-475742D01*
X+3842174Y-486237D01*
X+3848202Y-496732D01*
X+3857424Y-507112D01*
X+3867919Y-514800D01*
X+3878414Y-519718D01*
X+3888909Y-522524D01*
X+3899404Y-523497D01*
X+3900000Y-523500D01*
X+3963500Y-460000D02*
X+3963283Y-465247D01*
X+3961518Y-475742D01*
X+3957826Y-486237D01*
X+3951798Y-496732D01*
X+3942576Y-507112D01*
X+3932081Y-514800D01*
X+3921586Y-519718D01*
X+3911091Y-522524D01*
X+3900596Y-523497D01*
X+3900000Y-523500D01*
X+3900000Y-396500D02*
X+3900000Y-523500D01*
X+3836500Y-460000D02*
X+3963500Y-460000D01*
X+340000Y+1887500D02*
X+340000Y+1760500D01*
X+276500Y+1824000D02*
X+403500Y+1824000D01*
X+295099Y+1868901D02*
X+384901Y+1779099D01*
X+295099Y+1779099D02*
X+384901Y+1868901D01*
X+340000Y+1633500D02*
X+340000Y+1506500D01*
X+276500Y+1570000D02*
X+403500Y+1570000D01*
X+295099Y+1614901D02*
X+384901Y+1525099D01*
X+295099Y+1525099D02*
X+384901Y+1614901D01*
X+340000Y+1379500D02*
X+340000Y+1252500D01*
X+276500Y+1316000D02*
X+403500Y+1316000D01*
X+295099Y+1360901D02*
X+384901Y+1271099D01*
X+295099Y+1271099D02*
X+384901Y+1360901D01*
X-3320000Y+1033500D02*
X-3320000Y+906500D01*
X-3383500Y+970000D02*
X-3256500Y+970000D01*
X-3364901Y+1014901D02*
X-3275099Y+925099D01*
X-3364901Y+925099D02*
X-3275099Y+1014901D01*
X-3320000Y+533500D02*
X-3320000Y+406500D01*
X-3383500Y+470000D02*
X-3256500Y+470000D01*
X-3364901Y+514901D02*
X-3275099Y+425099D01*
X-3364901Y+425099D02*
X-3275099Y+514901D01*
X+3890000Y+613500D02*
X+3890000Y+486500D01*
X+3826500Y+550000D02*
X+3953500Y+550000D01*
X+3845099Y+594901D02*
X+3934901Y+505099D01*
X+3845099Y+505099D02*
X+3934901Y+594901D01*
X+3890000Y+123500D02*
X+3890000Y-3500D01*
X+3826500Y+60000D02*
X+3953500Y+60000D01*
X+3845099Y+104901D02*
X+3934901Y+15099D01*
X+3845099Y+15099D02*
X+3934901Y+104901D01*
X-2140000Y+973500D02*
X-2140000Y+846500D01*
X-2203500Y+910000D02*
X-2076500Y+910000D01*
X-2184901Y+954901D02*
X-2095099Y+865099D01*
X-2184901Y+865099D02*
X-2095099Y+954901D01*
X-2140000Y+719500D02*
X-2140000Y+592500D01*
X-2203500Y+656000D02*
X-2076500Y+656000D01*
X-2184901Y+700901D02*
X-2095099Y+611099D01*
X-2184901Y+611099D02*
X-2095099Y+700901D01*
X-2604901Y+364901D02*
X-2515099Y+275099D01*
X-2604901Y+275099D02*
X-2515099Y+364901D01*
X-1588901Y+364901D02*
X-1499099Y+275099D01*
X-1588901Y+275099D02*
X-1499099Y+364901D01*
X-2590000Y+1423500D02*
X-2590000Y+1296500D01*
X-2653500Y+1360000D02*
X-2526500Y+1360000D01*
X-2590000Y+1923500D02*
X-2590000Y+1796500D01*
X-2653500Y+1860000D02*
X-2526500Y+1860000D01*
X-1764901Y+1394901D02*
X-1675099Y+1305099D01*
X-1764901Y+1305099D02*
X-1675099Y+1394901D01*
X-1764901Y+1902901D02*
X-1675099Y+1813099D01*
X-1764901Y+1813099D02*
X-1675099Y+1902901D01*
X-264000Y+823500D02*
X-264000Y+696500D01*
X-327500Y+760000D02*
X-200500Y+760000D01*
X-308901Y+804901D02*
X-219099Y+715099D01*
X-308901Y+715099D02*
X-219099Y+804901D01*
X-1280000Y+823500D02*
X-1280000Y+696500D01*
X-1343500Y+760000D02*
X-1216500Y+760000D01*
X-1324901Y+804901D02*
X-1235099Y+715099D01*
X-1324901Y+715099D02*
X-1235099Y+804901D01*
X-254000Y+1693500D02*
X-254000Y+1566500D01*
X-317500Y+1630000D02*
X-190500Y+1630000D01*
X-298901Y+1674901D02*
X-209099Y+1585099D01*
X-298901Y+1585099D02*
X-209099Y+1674901D01*
X-1270000Y+1693500D02*
X-1270000Y+1566500D01*
X-1333500Y+1630000D02*
X-1206500Y+1630000D01*
X-1314901Y+1674901D02*
X-1225099Y+1585099D01*
X-1314901Y+1585099D02*
X-1225099Y+1674901D01*
X-1314901Y+1334901D02*
X-1225099Y+1245099D01*
X-1314901Y+1245099D02*
X-1225099Y+1334901D01*
X-298901Y+1334901D02*
X-209099Y+1245099D01*
X-298901Y+1245099D02*
X-209099Y+1334901D01*
X-1140000Y+2163500D02*
X-1140000Y+2036500D01*
X-1203500Y+2100000D02*
X-1076500Y+2100000D01*
X-1184901Y+2144901D02*
X-1095099Y+2055099D01*
X-1184901Y+2055099D02*
X-1095099Y+2144901D01*
X-640000Y+2163500D02*
X-640000Y+2036500D01*
X-703500Y+2100000D02*
X-576500Y+2100000D01*
X-684901Y+2144901D02*
X-595099Y+2055099D01*
X-684901Y+2055099D02*
X-595099Y+2144901D01*
X-2350000Y-396500D02*
X-2350000Y-523500D01*
X-2413500Y-460000D02*
X-2286500Y-460000D01*
X-2394901Y-415099D02*
X-2305099Y-504901D01*
X-2394901Y-504901D02*
X-2305099Y-415099D01*
X-1850000Y-396500D02*
X-1850000Y-523500D01*
X-1913500Y-460000D02*
X-1786500Y-460000D01*
X-1894901Y-415099D02*
X-1805099Y-504901D01*
X-1894901Y-504901D02*
X-1805099Y-415099D01*
X+2890000Y-416500D02*
X+2890000Y-543500D01*
X+2826500Y-480000D02*
X+2953500Y-480000D01*
X+2845099Y-435099D02*
X+2934901Y-524901D01*
X+2845099Y-524901D02*
X+2934901Y-435099D01*
X-1398901Y-435099D02*
X-1309099Y-524901D01*
X-1398901Y-524901D02*
X-1309099Y-435099D01*
X-890901Y-435099D02*
X-801099Y-524901D01*
X-890901Y-524901D02*
X-801099Y-435099D01*
X-1144901Y-435099D02*
X-1055099Y-524901D01*
X-1144901Y-524901D02*
X-1055099Y-435099D01*
X+1099Y-445099D02*
X+90901Y-534901D01*
X+1099Y-534901D02*
X+90901Y-445099D01*
X+509099Y-445099D02*
X+598901Y-534901D01*
X+509099Y-534901D02*
X+598901Y-445099D01*
X+255099Y-445099D02*
X+344901Y-534901D01*
X+255099Y-534901D02*
X+344901Y-445099D01*
X+1720000Y-6500D02*
X+1720000Y-133500D01*
X+1656500Y-70000D02*
X+1783500Y-70000D01*
X+1720000Y+493500D02*
X+1720000Y+366500D01*
X+1656500Y+430000D02*
X+1783500Y+430000D01*
X+2515099Y-33099D02*
X+2604901Y-122901D01*
X+2515099Y-122901D02*
X+2604901Y-33099D01*
X+2515099Y+474901D02*
X+2604901Y+385099D01*
X+2515099Y+385099D02*
X+2604901Y+474901D01*
X+3390000Y-416500D02*
X+3390000Y-543500D01*
X+3326500Y-480000D02*
X+3453500Y-480000D01*
X+3345099Y-435099D02*
X+3434901Y-524901D01*
X+3345099Y-524901D02*
X+3434901Y-435099D01*
X-3550000Y-808580D02*
X+4180000Y-808580D01*
X+4180000Y+2390000D01*
X-3550000Y+2390000D01*
X-3550000Y-808580D01*
D21*
X-3565080Y-2505280D02*
X-920940Y-2505280D01*
X-920940Y-1260680D01*
X-3565080Y-1260680D01*
X-3565080Y-2505280D01*
D22*
X-3097718Y-1260680D02*
X-3097718Y-2505280D01*
X-2284918Y-1260680D02*
X-2284918Y-2505280D01*
X-1451798Y-1260680D02*
X-1451798Y-2505280D01*
X-3565080Y-1533730D02*
X-920940Y-1533730D01*
X-3565080Y-1775030D02*
X-920940Y-1775030D01*
X-3565080Y-2016330D02*
X-920940Y-2016330D01*
X-3565080Y-2257630D02*
X-920940Y-2257630D01*
D21*
X-3507930Y-1424510D02*
X-3492690Y-1439750D01*
X-3431730Y-1439750D01*
X-3416490Y-1424510D01*
X-3416490Y-1409270D01*
X-3431730Y-1394030D01*
X-3492690Y-1394030D01*
X-3507930Y-1378790D01*
X-3507930Y-1363550D01*
X-3492690Y-1348310D01*
X-3431730Y-1348310D01*
X-3416490Y-1363550D01*
X-3294570Y-1348310D02*
X-3386010Y-1439750D01*
X-3386010Y-1348310D02*
X-3340290Y-1394030D01*
X-3264090Y-1439750D02*
X-3264090Y-1348310D01*
X-3218370Y-1394030D01*
X-3172650Y-1348310D01*
X-3172650Y-1439750D01*
X-3040570Y-1424510D02*
X-3025330Y-1439750D01*
X-2964370Y-1439750D01*
X-2949130Y-1424510D01*
X-2949130Y-1409270D01*
X-2964370Y-1394030D01*
X-3025330Y-1394030D01*
X-3040570Y-1378790D01*
X-3040570Y-1363550D01*
X-3025330Y-1348310D01*
X-2964370Y-1348310D01*
X-2949130Y-1363550D01*
X-2903410Y-1348310D02*
X-2842450Y-1348310D01*
X-2872930Y-1348310D02*
X-2872930Y-1439750D01*
X-2903410Y-1439750D02*
X-2842450Y-1439750D01*
X-2796730Y-1348310D02*
X-2705290Y-1348310D01*
X-2796730Y-1439750D01*
X-2705290Y-1439750D01*
X-2583370Y-1439750D02*
X-2674810Y-1439750D01*
X-2674810Y-1348310D01*
X-2583370Y-1348310D01*
X-2674810Y-1394030D02*
X-2613850Y-1394030D01*
X-2227770Y-1439750D02*
X-2227770Y-1348310D01*
X-2151570Y-1348310D01*
X-2136330Y-1363550D01*
X-2136330Y-1378790D01*
X-2151570Y-1394030D01*
X-2227770Y-1394030D01*
X-2105850Y-1348310D02*
X-2105850Y-1439750D01*
X-2014410Y-1439750D01*
X-1983930Y-1439750D02*
X-1983930Y-1378790D01*
X-1953450Y-1348310D01*
X-1922970Y-1348310D01*
X-1892490Y-1378790D01*
X-1892490Y-1439750D01*
X-1983930Y-1409270D02*
X-1892490Y-1409270D01*
X-1862010Y-1348310D02*
X-1770570Y-1348310D01*
X-1816290Y-1348310D02*
X-1816290Y-1439750D01*
X-1648650Y-1439750D02*
X-1740090Y-1439750D01*
X-1740090Y-1348310D01*
X-1648650Y-1348310D01*
X-1740090Y-1394030D02*
X-1679130Y-1394030D01*
X-1618170Y-1439750D02*
X-1618170Y-1348310D01*
X-1557210Y-1348310D01*
X-1526730Y-1378790D01*
X-1526730Y-1409270D01*
X-1557210Y-1439750D01*
X-1618170Y-1439750D01*
X-1394650Y-1378790D02*
X-1364170Y-1348310D01*
X-1333690Y-1348310D01*
X-1303210Y-1378790D01*
X-1303210Y-1409270D01*
X-1333690Y-1439750D01*
X-1364170Y-1439750D01*
X-1394650Y-1409270D01*
X-1394650Y-1378790D01*
X-1333690Y-1409270D02*
X-1303210Y-1439750D01*
X-1272730Y-1348310D02*
X-1181290Y-1348310D01*
X-1227010Y-1348310D02*
X-1227010Y-1439750D01*
X-1059370Y-1348310D02*
X-1150810Y-1439750D01*
X-1150810Y-1348310D02*
X-1105090Y-1394030D01*
D20*
X-3318700Y-1584530D02*
X-3318700Y-1711530D01*
X-3382200Y-1648030D02*
X-3255200Y-1648030D01*
D21*
X-3021520Y-1673430D02*
X-3021520Y-1622630D01*
X-3008820Y-1609930D01*
X-2958020Y-1609930D01*
X-2945320Y-1622630D01*
X-2945320Y-1673430D01*
X-2958020Y-1686130D01*
X-3008820Y-1686130D01*
X-3021520Y-1673430D01*
X-3021520Y-1686130D02*
X-2945320Y-1609930D01*
X-2881820Y-1673430D02*
X-2869120Y-1673430D01*
X-2869120Y-1686130D01*
X-2881820Y-1686130D01*
X-2881820Y-1673430D01*
X-2792920Y-1648030D02*
X-2805620Y-1635330D01*
X-2805620Y-1622630D01*
X-2792920Y-1609930D01*
X-2754820Y-1609930D01*
X-2742120Y-1622630D01*
X-2742120Y-1635330D01*
X-2754820Y-1648030D01*
X-2792920Y-1648030D01*
X-2805620Y-1660730D01*
X-2805620Y-1673430D01*
X-2792920Y-1686130D01*
X-2754820Y-1686130D01*
X-2742120Y-1673430D01*
X-2742120Y-1660730D01*
X-2754820Y-1648030D01*
X-2640520Y-1609930D02*
X-2704020Y-1609930D01*
X-2704020Y-1635330D01*
X-2653220Y-1635330D01*
X-2640520Y-1648030D01*
X-2640520Y-1673430D01*
X-2653220Y-1686130D01*
X-2691320Y-1686130D01*
X-2704020Y-1673430D01*
X-2615120Y-1686130D02*
X-2615120Y-1635330D01*
X-2615120Y-1648030D02*
X-2602420Y-1635330D01*
X-2577020Y-1660730D01*
X-2551620Y-1635330D01*
X-2538920Y-1648030D01*
X-2538920Y-1686130D01*
X-2513520Y-1686130D02*
X-2513520Y-1635330D01*
X-2513520Y-1648030D02*
X-2500820Y-1635330D01*
X-2475420Y-1660730D01*
X-2450020Y-1635330D01*
X-2437320Y-1648030D01*
X-2437320Y-1686130D01*
X-2119820Y-1609930D02*
X-2196020Y-1686130D01*
X-2196020Y-1609930D02*
X-2157920Y-1648030D01*
X-2018220Y-1686130D02*
X-2094420Y-1686130D01*
X-2094420Y-1609930D01*
X-2018220Y-1609930D01*
X-2094420Y-1648030D02*
X-2043620Y-1648030D01*
X-1992820Y-1673430D02*
X-1980120Y-1686130D01*
X-1929320Y-1686130D01*
X-1916620Y-1673430D01*
X-1916620Y-1660730D01*
X-1929320Y-1648030D01*
X-1980120Y-1648030D01*
X-1992820Y-1635330D01*
X-1992820Y-1622630D01*
X-1980120Y-1609930D01*
X-1929320Y-1609930D01*
X-1916620Y-1622630D01*
X-1274000Y-1660730D02*
X-1350200Y-1660730D01*
X-1299400Y-1609930D01*
X-1299400Y-1686130D01*
D20*
X-3363601Y-1844429D02*
X-3273799Y-1934231D01*
X-3363601Y-1934231D02*
X-3273799Y-1844429D01*
D21*
X-3021520Y-1914730D02*
X-3021520Y-1863930D01*
X-3008820Y-1851230D01*
X-2958020Y-1851230D01*
X-2945320Y-1863930D01*
X-2945320Y-1914730D01*
X-2958020Y-1927430D01*
X-3008820Y-1927430D01*
X-3021520Y-1914730D01*
X-3021520Y-1927430D02*
X-2945320Y-1851230D01*
X-2881820Y-1914730D02*
X-2869120Y-1914730D01*
X-2869120Y-1927430D01*
X-2881820Y-1927430D01*
X-2881820Y-1914730D01*
X-2805620Y-1851230D02*
X-2742120Y-1851230D01*
X-2742120Y-1863930D01*
X-2805620Y-1927430D01*
X-2640520Y-1863930D02*
X-2653220Y-1851230D01*
X-2691320Y-1851230D01*
X-2704020Y-1863930D01*
X-2704020Y-1914730D01*
X-2691320Y-1927430D01*
X-2653220Y-1927430D01*
X-2640520Y-1914730D01*
X-2640520Y-1902030D01*
X-2653220Y-1889330D01*
X-2704020Y-1889330D01*
X-2602420Y-1863930D02*
X-2589720Y-1851230D01*
X-2551620Y-1851230D01*
X-2538920Y-1863930D01*
X-2538920Y-1876630D01*
X-2551620Y-1889330D01*
X-2589720Y-1889330D01*
X-2602420Y-1902030D01*
X-2602420Y-1927430D01*
X-2538920Y-1927430D01*
X-2513520Y-1927430D02*
X-2513520Y-1876630D01*
X-2513520Y-1889330D02*
X-2500820Y-1876630D01*
X-2475420Y-1902030D01*
X-2450020Y-1876630D01*
X-2437320Y-1889330D01*
X-2437320Y-1927430D01*
X-2411920Y-1927430D02*
X-2411920Y-1876630D01*
X-2411920Y-1889330D02*
X-2399220Y-1876630D01*
X-2373820Y-1902030D01*
X-2348420Y-1876630D01*
X-2335720Y-1889330D01*
X-2335720Y-1927430D01*
X-2119820Y-1851230D02*
X-2196020Y-1927430D01*
X-2196020Y-1851230D02*
X-2157920Y-1889330D01*
X-2018220Y-1927430D02*
X-2094420Y-1927430D01*
X-2094420Y-1851230D01*
X-2018220Y-1851230D01*
X-2094420Y-1889330D02*
X-2043620Y-1889330D01*
X-1992820Y-1914730D02*
X-1980120Y-1927430D01*
X-1929320Y-1927430D01*
X-1916620Y-1914730D01*
X-1916620Y-1902030D01*
X-1929320Y-1889330D01*
X-1980120Y-1889330D01*
X-1992820Y-1876630D01*
X-1992820Y-1863930D01*
X-1980120Y-1851230D01*
X-1929320Y-1851230D01*
X-1916620Y-1863930D01*
X-1324800Y-1876630D02*
X-1299400Y-1851230D01*
X-1299400Y-1927430D01*
X-1172400Y-1902030D02*
X-1248600Y-1902030D01*
X-1197800Y-1851230D01*
X-1197800Y-1927430D01*
D20*
X-3318700Y-2067130D02*
X-3318700Y-2194130D01*
X-3382200Y-2130630D02*
X-3255200Y-2130630D01*
X-3363601Y-2085729D02*
X-3273799Y-2175531D01*
X-3363601Y-2175531D02*
X-3273799Y-2085729D01*
D21*
X-2996120Y-2117930D02*
X-2970720Y-2092530D01*
X-2970720Y-2168730D01*
X-2881820Y-2156030D02*
X-2869120Y-2156030D01*
X-2869120Y-2168730D01*
X-2881820Y-2168730D01*
X-2881820Y-2156030D01*
X-2818320Y-2156030D02*
X-2818320Y-2105230D01*
X-2805620Y-2092530D01*
X-2754820Y-2092530D01*
X-2742120Y-2105230D01*
X-2742120Y-2156030D01*
X-2754820Y-2168730D01*
X-2805620Y-2168730D01*
X-2818320Y-2156030D01*
X-2818320Y-2168730D02*
X-2742120Y-2092530D01*
X-2691320Y-2117930D02*
X-2665920Y-2092530D01*
X-2665920Y-2168730D01*
X-2538920Y-2105230D02*
X-2551620Y-2092530D01*
X-2589720Y-2092530D01*
X-2602420Y-2105230D01*
X-2602420Y-2156030D01*
X-2589720Y-2168730D01*
X-2551620Y-2168730D01*
X-2538920Y-2156030D01*
X-2538920Y-2143330D01*
X-2551620Y-2130630D01*
X-2602420Y-2130630D01*
X-2513520Y-2168730D02*
X-2513520Y-2117930D01*
X-2513520Y-2130630D02*
X-2500820Y-2117930D01*
X-2475420Y-2143330D01*
X-2450020Y-2117930D01*
X-2437320Y-2130630D01*
X-2437320Y-2168730D01*
X-2411920Y-2168730D02*
X-2411920Y-2117930D01*
X-2411920Y-2130630D02*
X-2399220Y-2117930D01*
X-2373820Y-2143330D01*
X-2348420Y-2117930D01*
X-2335720Y-2130630D01*
X-2335720Y-2168730D01*
X-2119820Y-2092530D02*
X-2196020Y-2168730D01*
X-2196020Y-2092530D02*
X-2157920Y-2130630D01*
X-2018220Y-2168730D02*
X-2094420Y-2168730D01*
X-2094420Y-2092530D01*
X-2018220Y-2092530D01*
X-2094420Y-2130630D02*
X-2043620Y-2130630D01*
X-1992820Y-2156030D02*
X-1980120Y-2168730D01*
X-1929320Y-2168730D01*
X-1916620Y-2156030D01*
X-1916620Y-2143330D01*
X-1929320Y-2130630D01*
X-1980120Y-2130630D01*
X-1992820Y-2117930D01*
X-1992820Y-2105230D01*
X-1980120Y-2092530D01*
X-1929320Y-2092530D01*
X-1916620Y-2105230D01*
X-1324800Y-2117930D02*
X-1299400Y-2092530D01*
X-1299400Y-2168730D01*
X-1172400Y-2117930D02*
X-1185100Y-2130630D01*
X-1223200Y-2130630D01*
X-1235900Y-2117930D01*
X-1235900Y-2105230D01*
X-1223200Y-2092530D01*
X-1185100Y-2092530D01*
X-1172400Y-2105230D01*
X-1172400Y-2156030D01*
X-1185100Y-2168730D01*
X-1223200Y-2168730D01*
D20*
X-3255200Y-2371930D02*
X-3255417Y-2366683D01*
X-3257182Y-2356188D01*
X-3260874Y-2345693D01*
X-3266902Y-2335198D01*
X-3276124Y-2324818D01*
X-3286619Y-2317130D01*
X-3297114Y-2312212D01*
X-3307609Y-2309406D01*
X-3318104Y-2308433D01*
X-3318700Y-2308430D01*
X-3382200Y-2371930D02*
X-3381983Y-2366683D01*
X-3380218Y-2356188D01*
X-3376526Y-2345693D01*
X-3370498Y-2335198D01*
X-3361276Y-2324818D01*
X-3350781Y-2317130D01*
X-3340286Y-2312212D01*
X-3329791Y-2309406D01*
X-3319296Y-2308433D01*
X-3318700Y-2308430D01*
X-3382200Y-2371930D02*
X-3381983Y-2377177D01*
X-3380218Y-2387672D01*
X-3376526Y-2398167D01*
X-3370498Y-2408662D01*
X-3361276Y-2419042D01*
X-3350781Y-2426730D01*
X-3340286Y-2431648D01*
X-3329791Y-2434454D01*
X-3319296Y-2435427D01*
X-3318700Y-2435430D01*
X-3255200Y-2371930D02*
X-3255417Y-2377177D01*
X-3257182Y-2387672D01*
X-3260874Y-2398167D01*
X-3266902Y-2408662D01*
X-3276124Y-2419042D01*
X-3286619Y-2426730D01*
X-3297114Y-2431648D01*
X-3307609Y-2434454D01*
X-3318104Y-2435427D01*
X-3318700Y-2435430D01*
X-3318700Y-2308430D02*
X-3318700Y-2435430D01*
X-3382200Y-2371930D02*
X-3255200Y-2371930D01*
D21*
X-2996120Y-2359230D02*
X-2970720Y-2333830D01*
X-2970720Y-2410030D01*
X-2881820Y-2397330D02*
X-2869120Y-2397330D01*
X-2869120Y-2410030D01*
X-2881820Y-2410030D01*
X-2881820Y-2397330D01*
X-2805620Y-2333830D02*
X-2742120Y-2333830D01*
X-2742120Y-2346530D01*
X-2805620Y-2410030D01*
X-2704020Y-2333830D02*
X-2640520Y-2333830D01*
X-2640520Y-2346530D01*
X-2704020Y-2410030D01*
X-2589720Y-2371930D02*
X-2602420Y-2359230D01*
X-2602420Y-2346530D01*
X-2589720Y-2333830D01*
X-2551620Y-2333830D01*
X-2538920Y-2346530D01*
X-2538920Y-2359230D01*
X-2551620Y-2371930D01*
X-2589720Y-2371930D01*
X-2602420Y-2384630D01*
X-2602420Y-2397330D01*
X-2589720Y-2410030D01*
X-2551620Y-2410030D01*
X-2538920Y-2397330D01*
X-2538920Y-2384630D01*
X-2551620Y-2371930D01*
X-2513520Y-2410030D02*
X-2513520Y-2359230D01*
X-2513520Y-2371930D02*
X-2500820Y-2359230D01*
X-2475420Y-2384630D01*
X-2450020Y-2359230D01*
X-2437320Y-2371930D01*
X-2437320Y-2410030D01*
X-2411920Y-2410030D02*
X-2411920Y-2359230D01*
X-2411920Y-2371930D02*
X-2399220Y-2359230D01*
X-2373820Y-2384630D01*
X-2348420Y-2359230D01*
X-2335720Y-2371930D01*
X-2335720Y-2410030D01*
X-2119820Y-2333830D02*
X-2196020Y-2410030D01*
X-2196020Y-2333830D02*
X-2157920Y-2371930D01*
X-2018220Y-2410030D02*
X-2094420Y-2410030D01*
X-2094420Y-2333830D01*
X-2018220Y-2333830D01*
X-2094420Y-2371930D02*
X-2043620Y-2371930D01*
X-1992820Y-2397330D02*
X-1980120Y-2410030D01*
X-1929320Y-2410030D01*
X-1916620Y-2397330D01*
X-1916620Y-2384630D01*
X-1929320Y-2371930D01*
X-1980120Y-2371930D01*
X-1992820Y-2359230D01*
X-1992820Y-2346530D01*
X-1980120Y-2333830D01*
X-1929320Y-2333830D01*
X-1916620Y-2346530D01*
X-1274000Y-2384630D02*
X-1350200Y-2384630D01*
X-1299400Y-2333830D01*
X-1299400Y-2410030D01*
M02*
